<?xml version="1.0" encoding="UTF-8" standalone="no"?>
<!DOCTYPE svg PUBLIC "-//W3C//DTD SVG 1.1//EN"
 "http://www.w3.org/Graphics/SVG/1.1/DTD/svg11.dtd">
<!-- Generated by graphviz version 2.43.0 (0)
 -->
<!-- Title: arch Pages: 1 -->
<svg width="826pt" height="1431pt"
 viewBox="0.00 0.00 826.20 1430.70" xmlns="http://www.w3.org/2000/svg" xmlns:xlink="http://www.w3.org/1999/xlink">
<g id="graph0" class="graph" transform="scale(1 1) rotate(0) translate(21.6 1409.1)">
<title>arch</title>
<polygon fill="white" stroke="transparent" points="-21.6,21.6 -21.6,-1409.1 804.6,-1409.1 804.6,21.6 -21.6,21.6"/>
<text text-anchor="middle" x="391.5" y="-1369.1" font-family="Helvetica,sans-Serif" font-size="18.00">Condition monitoring pipeline — host PC ⇄ DE0&#45;CV (Cyclone V)</text>
<g id="clust1" class="cluster">
<title>cluster_host</title>
<path fill="#e8f1fb" stroke="#4a7bb7" d="M313,-1161C313,-1161 742,-1161 742,-1161 748,-1161 754,-1167 754,-1173 754,-1173 754,-1339.5 754,-1339.5 754,-1345.5 748,-1351.5 742,-1351.5 742,-1351.5 313,-1351.5 313,-1351.5 307,-1351.5 301,-1345.5 301,-1339.5 301,-1339.5 301,-1173 301,-1173 301,-1167 307,-1161 313,-1161"/>
<text text-anchor="middle" x="527.5" y="-1333.1" font-family="Helvetica,sans-Serif" font-size="18.00">Host PC &#160;(Scripts/fpga_host)</text>
</g>
<g id="clust2" class="cluster">
<title>cluster_board</title>
<path fill="#f3f3f3" stroke="#777777" d="M20,-8C20,-8 744,-8 744,-8 750,-8 756,-14 756,-20 756,-20 756,-1027 756,-1027 756,-1033 750,-1039 744,-1039 744,-1039 20,-1039 20,-1039 14,-1039 8,-1033 8,-1027 8,-1027 8,-20 8,-20 8,-14 14,-8 20,-8"/>
<text text-anchor="middle" x="382" y="-1020.6" font-family="Helvetica,sans-Serif" font-size="18.00">top_system_de0cv &#160;(board wrapper · synthesis top)</text>
</g>
<g id="clust3" class="cluster">
<title>cluster_top</title>
<path fill="#eaf6ea" stroke="#4d9a4d" d="M28,-86C28,-86 622,-86 622,-86 628,-86 634,-92 634,-98 634,-98 634,-991 634,-991 634,-997 628,-1003 622,-1003 622,-1003 28,-1003 28,-1003 22,-1003 16,-997 16,-991 16,-991 16,-98 16,-98 16,-92 22,-86 28,-86"/>
<text text-anchor="middle" x="325" y="-984.6" font-family="Helvetica,sans-Serif" font-size="18.00">top_system &#160;(50 MHz)</text>
</g>
<g id="clust4" class="cluster">
<title>cluster_ing</title>
<path fill="white" stroke="#4d9a4d" d="M362,-749C362,-749 614,-749 614,-749 620,-749 626,-755 626,-761 626,-761 626,-955 626,-955 626,-961 620,-967 614,-967 614,-967 362,-967 362,-967 356,-967 350,-961 350,-955 350,-955 350,-761 350,-761 350,-755 356,-749 362,-749"/>
<text text-anchor="middle" x="488" y="-948.6" font-family="Helvetica,sans-Serif" font-size="18.00">sensor_ingestion_subsystem</text>
</g>
<g id="clust5" class="cluster">
<title>cluster_dsp</title>
<path fill="white" stroke="#4d9a4d" d="M179,-565C179,-565 446,-565 446,-565 452,-565 458,-571 458,-577 458,-577 458,-711 458,-711 458,-717 452,-723 446,-723 446,-723 179,-723 179,-723 173,-723 167,-717 167,-711 167,-711 167,-577 167,-577 167,-571 173,-565 179,-565"/>
<text text-anchor="middle" x="312.5" y="-704.6" font-family="Helvetica,sans-Serif" font-size="18.00">dsp_preprocessing_subsystem</text>
</g>
<g id="clust6" class="cluster">
<title>cluster_mlp</title>
<path fill="white" stroke="#4d9a4d" d="M365,-311C365,-311 614,-311 614,-311 620,-311 626,-317 626,-323 626,-323 626,-517 626,-517 626,-523 620,-529 614,-529 614,-529 365,-529 365,-529 359,-529 353,-523 353,-517 353,-517 353,-323 353,-323 353,-317 359,-311 365,-311"/>
<text text-anchor="middle" x="489.5" y="-510.6" font-family="Helvetica,sans-Serif" font-size="18.00">mlp_inference_path &#160;(snoop)</text>
</g>
<g id="clust7" class="cluster">
<title>cluster_cnn</title>
<path fill="white" stroke="#4d9a4d" d="M36,-164C36,-164 333,-164 333,-164 339,-164 345,-170 345,-176 345,-176 345,-517 345,-517 345,-523 339,-529 333,-529 333,-529 36,-529 36,-529 30,-529 24,-523 24,-517 24,-517 24,-176 24,-176 24,-170 30,-164 36,-164"/>
<text text-anchor="middle" x="184.5" y="-510.6" font-family="Helvetica,sans-Serif" font-size="18.00">cnn_inference_path &#160;(owns ready)</text>
</g>
<!-- dataset -->
<g id="node1" class="node">
<title>dataset</title>
<path fill="#d6e6f7" stroke="#555555" d="M745.5,-1310.21C745.5,-1313.27 710.76,-1315.75 668,-1315.75 625.24,-1315.75 590.5,-1313.27 590.5,-1310.21 590.5,-1310.21 590.5,-1260.29 590.5,-1260.29 590.5,-1257.23 625.24,-1254.75 668,-1254.75 710.76,-1254.75 745.5,-1257.23 745.5,-1260.29 745.5,-1260.29 745.5,-1310.21 745.5,-1310.21"/>
<path fill="none" stroke="#555555" d="M745.5,-1310.21C745.5,-1307.15 710.76,-1304.66 668,-1304.66 625.24,-1304.66 590.5,-1307.15 590.5,-1310.21"/>
<text text-anchor="middle" x="668" y="-1294.45" font-family="Helvetica,sans-Serif" font-size="11.00">dataset_q915</text>
<text text-anchor="middle" x="668" y="-1282.45" font-family="Helvetica,sans-Serif" font-size="11.00">Q9.15 captures</text>
<text text-anchor="middle" x="668" y="-1270.45" font-family="Helvetica,sans-Serif" font-size="11.00">4× vib, current, 2× temp</text>
</g>
<!-- link -->
<g id="node2" class="node">
<title>link</title>
<path fill="#ffffff" stroke="#555555" d="M644,-1213C644,-1213 484,-1213 484,-1213 478,-1213 472,-1207 472,-1201 472,-1201 472,-1181 472,-1181 472,-1175 478,-1169 484,-1169 484,-1169 644,-1169 644,-1169 650,-1169 656,-1175 656,-1181 656,-1181 656,-1201 656,-1201 656,-1207 650,-1213 644,-1213"/>
<text text-anchor="middle" x="564" y="-1200.2" font-family="Helvetica,sans-Serif" font-size="11.00">fpga_uart_link.py</text>
<text text-anchor="middle" x="564" y="-1188.2" font-family="Helvetica,sans-Serif" font-size="11.00">FrameStream · AuxAggregator</text>
<text text-anchor="middle" x="564" y="-1176.2" font-family="Helvetica,sans-Serif" font-size="11.00">pacing · logging</text>
</g>
<!-- dataset&#45;&gt;link -->
<g id="edge1" class="edge">
<title>dataset&#45;&gt;link</title>
<path fill="none" stroke="#444444" d="M634.81,-1254.81C622.32,-1243.73 608.17,-1231.18 595.81,-1220.22"/>
<polygon fill="#444444" stroke="#444444" points="597.79,-1217.3 587.99,-1213.28 593.15,-1222.53 597.79,-1217.3"/>
</g>
<!-- usb -->
<g id="node6" class="node">
<title>usb</title>
<polygon fill="#fff4d6" stroke="#b08a2e" points="616,-1117 512,-1117 512,-1113 508,-1113 508,-1109 512,-1109 512,-1081 508,-1081 508,-1077 512,-1077 512,-1073 616,-1073 616,-1117"/>
<polyline fill="none" stroke="#b08a2e" points="512,-1113 516,-1113 516,-1109 512,-1109 "/>
<polyline fill="none" stroke="#b08a2e" points="512,-1081 516,-1081 516,-1077 512,-1077 "/>
<text text-anchor="middle" x="564" y="-1104.2" font-family="Helvetica,sans-Serif" font-size="11.00">CP2102</text>
<text text-anchor="middle" x="564" y="-1092.2" font-family="Helvetica,sans-Serif" font-size="11.00">USB&#45;UART 3.3 V</text>
<text text-anchor="middle" x="564" y="-1080.2" font-family="Helvetica,sans-Serif" font-size="11.00">115200 8N1</text>
</g>
<!-- link&#45;&gt;usb -->
<g id="edge20" class="edge">
<title>link&#45;&gt;usb</title>
<path fill="none" stroke="#2f6db5" stroke-width="1.6" d="M564,-1168.67C564,-1156.53 564,-1141.1 564,-1127.58"/>
<polygon fill="#2f6db5" stroke="#2f6db5" stroke-width="1.6" points="567.5,-1127.25 564,-1117.25 560.5,-1127.25 567.5,-1127.25"/>
<text text-anchor="middle" x="596" y="-1145.8" font-family="Helvetica,sans-Serif" font-size="9.00" fill="#2f6db5">sensor frames</text>
<text text-anchor="middle" x="596" y="-1135.8" font-family="Helvetica,sans-Serif" font-size="9.00" fill="#2f6db5">480 fr/s</text>
</g>
<!-- cli -->
<g id="node3" class="node">
<title>cli</title>
<path fill="#ffffff" stroke="#555555" d="M553.5,-1303.25C553.5,-1303.25 452.5,-1303.25 452.5,-1303.25 446.5,-1303.25 440.5,-1297.25 440.5,-1291.25 440.5,-1291.25 440.5,-1279.25 440.5,-1279.25 440.5,-1273.25 446.5,-1267.25 452.5,-1267.25 452.5,-1267.25 553.5,-1267.25 553.5,-1267.25 559.5,-1267.25 565.5,-1273.25 565.5,-1279.25 565.5,-1279.25 565.5,-1291.25 565.5,-1291.25 565.5,-1297.25 559.5,-1303.25 553.5,-1303.25"/>
<text text-anchor="middle" x="503" y="-1288.45" font-family="Helvetica,sans-Serif" font-size="11.00">stream_scenario.py</text>
<text text-anchor="middle" x="503" y="-1276.45" font-family="Helvetica,sans-Serif" font-size="11.00">run_schedule.py</text>
</g>
<!-- cli&#45;&gt;link -->
<g id="edge2" class="edge">
<title>cli&#45;&gt;link</title>
<path fill="none" stroke="#444444" d="M514.47,-1266.9C522.9,-1254.16 534.55,-1236.54 544.43,-1221.6"/>
<polygon fill="#444444" stroke="#444444" points="547.41,-1223.43 550.01,-1213.16 541.57,-1219.57 547.41,-1223.43"/>
<text text-anchor="middle" x="548.5" y="-1231.8" font-family="Helvetica,sans-Serif" font-size="9.00">uses</text>
</g>
<!-- server -->
<g id="node4" class="node">
<title>server</title>
<path fill="#ffffff" stroke="#555555" d="M403.5,-1313.25C403.5,-1313.25 320.5,-1313.25 320.5,-1313.25 314.5,-1313.25 308.5,-1307.25 308.5,-1301.25 308.5,-1301.25 308.5,-1269.25 308.5,-1269.25 308.5,-1263.25 314.5,-1257.25 320.5,-1257.25 320.5,-1257.25 403.5,-1257.25 403.5,-1257.25 409.5,-1257.25 415.5,-1263.25 415.5,-1269.25 415.5,-1269.25 415.5,-1301.25 415.5,-1301.25 415.5,-1307.25 409.5,-1313.25 403.5,-1313.25"/>
<text text-anchor="middle" x="362" y="-1300.45" font-family="Helvetica,sans-Serif" font-size="11.00">bench_server.py</text>
<text text-anchor="middle" x="362" y="-1288.45" font-family="Helvetica,sans-Serif" font-size="11.00">serial I/O thread</text>
<text text-anchor="middle" x="362" y="-1276.45" font-family="Helvetica,sans-Serif" font-size="11.00">verdict scoring</text>
<text text-anchor="middle" x="362" y="-1264.45" font-family="Helvetica,sans-Serif" font-size="11.00">/api/state</text>
</g>
<!-- server&#45;&gt;link -->
<g id="edge3" class="edge">
<title>server&#45;&gt;link</title>
<path fill="none" stroke="#444444" d="M415.6,-1259.77C444.29,-1246.67 479.57,-1230.56 508.54,-1217.33"/>
<polygon fill="#444444" stroke="#444444" points="510.06,-1220.48 517.7,-1213.14 507.15,-1214.11 510.06,-1220.48"/>
<text text-anchor="middle" x="491.5" y="-1231.8" font-family="Helvetica,sans-Serif" font-size="9.00">uses</text>
</g>
<!-- dash -->
<g id="node5" class="node">
<title>dash</title>
<path fill="#d6e6f7" stroke="#555555" d="M434.5,-1209C434.5,-1209 321.5,-1209 321.5,-1209 315.5,-1209 309.5,-1203 309.5,-1197 309.5,-1197 309.5,-1185 309.5,-1185 309.5,-1179 315.5,-1173 321.5,-1173 321.5,-1173 434.5,-1173 434.5,-1173 440.5,-1173 446.5,-1179 446.5,-1185 446.5,-1185 446.5,-1197 446.5,-1197 446.5,-1203 440.5,-1209 434.5,-1209"/>
<text text-anchor="middle" x="378" y="-1194.2" font-family="Helvetica,sans-Serif" font-size="11.00">dashboard/index.html</text>
<text text-anchor="middle" x="378" y="-1182.2" font-family="Helvetica,sans-Serif" font-size="11.00">(browser, :8050)</text>
</g>
<!-- server&#45;&gt;dash -->
<g id="edge4" class="edge">
<title>server&#45;&gt;dash</title>
<path fill="none" stroke="#444444" d="M365.53,-1257.21C366.81,-1248.22 368.35,-1238.16 370,-1229 370.56,-1225.87 371.2,-1222.6 371.86,-1219.35"/>
<polygon fill="#444444" stroke="#444444" points="375.35,-1219.78 374.01,-1209.27 368.5,-1218.32 375.35,-1219.78"/>
<text text-anchor="middle" x="399" y="-1231.8" font-family="Helvetica,sans-Serif" font-size="9.00">HTTP poll 1 s</text>
</g>
<!-- usb&#45;&gt;server -->
<g id="edge27" class="edge">
<title>usb&#45;&gt;server</title>
<path fill="none" stroke="#b5412f" stroke-width="1.6" d="M616.14,-1113.88C637.01,-1124.08 658.55,-1139.26 669,-1161 679.01,-1181.83 683.22,-1194.78 669,-1213 635.54,-1255.85 480.44,-1240.67 428,-1255 427.1,-1255.25 426.2,-1255.5 425.29,-1255.77"/>
<polygon fill="#b5412f" stroke="#b5412f" stroke-width="1.6" points="423.97,-1252.52 415.54,-1258.94 426.14,-1259.17 423.97,-1252.52"/>
<text text-anchor="middle" x="711.5" y="-1188.8" font-family="Helvetica,sans-Serif" font-size="9.00" fill="#b5412f">telemetry lines</text>
</g>
<!-- snoop -->
<g id="node7" class="node">
<title>snoop</title>
<path fill="#fde9e7" stroke="#555555" d="M736.5,-130C736.5,-130 653.5,-130 653.5,-130 647.5,-130 641.5,-124 641.5,-118 641.5,-118 641.5,-106 641.5,-106 641.5,-100 647.5,-94 653.5,-94 653.5,-94 736.5,-94 736.5,-94 742.5,-94 748.5,-100 748.5,-106 748.5,-106 748.5,-118 748.5,-118 748.5,-124 742.5,-130 736.5,-130"/>
<text text-anchor="middle" x="695" y="-115.2" font-family="Helvetica,sans-Serif" font-size="11.00">snoop UART RX</text>
<text text-anchor="middle" x="695" y="-103.2" font-family="Helvetica,sans-Serif" font-size="11.00">byte counter (B)</text>
</g>
<!-- usb&#45;&gt;snoop -->
<g id="edge22" class="edge">
<title>usb&#45;&gt;snoop</title>
<path fill="none" stroke="#2f6db5" stroke-dasharray="5,2" d="M597.77,-1072.97C610.05,-1063.85 623.09,-1052.22 632,-1039 664.45,-990.84 670,-972.07 670,-914 670,-914 670,-914 670,-189 670,-171.96 675.74,-153.8 681.72,-139.5"/>
<polygon fill="#2f6db5" stroke="#2f6db5" points="684.96,-140.84 685.83,-130.28 678.56,-137.99 684.96,-140.84"/>
</g>
<!-- urx -->
<g id="node10" class="node">
<title>urx</title>
<path fill="#ffffff" stroke="#555555" d="M589.5,-931C589.5,-931 452.5,-931 452.5,-931 446.5,-931 440.5,-925 440.5,-919 440.5,-919 440.5,-907 440.5,-907 440.5,-901 446.5,-895 452.5,-895 452.5,-895 589.5,-895 589.5,-895 595.5,-895 601.5,-901 601.5,-907 601.5,-907 601.5,-919 601.5,-919 601.5,-925 595.5,-931 589.5,-931"/>
<text text-anchor="middle" x="521" y="-910.2" font-family="Helvetica,sans-Serif" font-size="11.00">baudrate + UART receiver</text>
</g>
<!-- usb&#45;&gt;urx -->
<g id="edge21" class="edge">
<title>usb&#45;&gt;urx</title>
<path fill="none" stroke="#2f6db5" stroke-width="1.6" d="M558.98,-1073C551.16,-1040.25 536.06,-977.04 527.44,-940.96"/>
<polygon fill="#2f6db5" stroke="#2f6db5" stroke-width="1.6" points="530.82,-940.04 525.09,-931.13 524.01,-941.67 530.82,-940.04"/>
<text text-anchor="middle" x="577" y="-1049.8" font-family="Helvetica,sans-Serif" font-size="9.00" fill="#2f6db5">GPIO_1[4]</text>
</g>
<!-- telem -->
<g id="node8" class="node">
<title>telem</title>
<path fill="#fde9e7" stroke="#555555" d="M716,-52C716,-52 594,-52 594,-52 588,-52 582,-46 582,-40 582,-40 582,-28 582,-28 582,-22 588,-16 594,-16 594,-16 716,-16 716,-16 722,-16 728,-22 728,-28 728,-28 728,-40 728,-40 728,-46 722,-52 716,-52"/>
<text text-anchor="middle" x="655" y="-37.2" font-family="Helvetica,sans-Serif" font-size="11.00">telemetry TX &#160;~500 ms</text>
<text text-anchor="middle" x="655" y="-25.2" font-family="Helvetica,sans-Serif" font-size="11.00">B E S F A M N C K</text>
</g>
<!-- snoop&#45;&gt;telem -->
<g id="edge25" class="edge">
<title>snoop&#45;&gt;telem</title>
<path fill="none" stroke="#444444" d="M685.92,-93.75C680.86,-84.13 674.45,-71.95 668.78,-61.18"/>
<polygon fill="#444444" stroke="#444444" points="671.8,-59.4 664.04,-52.18 665.6,-62.66 671.8,-59.4"/>
</g>
<!-- telem&#45;&gt;usb -->
<g id="edge26" class="edge">
<title>telem&#45;&gt;usb</title>
<path fill="none" stroke="#b5412f" stroke-width="1.6" d="M718.85,-52.02C735.39,-59.64 751.27,-70.53 761,-86 771.41,-102.56 761.94,-110.47 761,-130 744.98,-464.04 724.72,-546.49 689,-879 681.35,-950.2 708.9,-978.88 670,-1039 659.55,-1055.16 642.74,-1066.83 625.56,-1075.14"/>
<polygon fill="#b5412f" stroke="#b5412f" stroke-width="1.6" points="623.71,-1072.13 616.02,-1079.42 626.57,-1078.52 623.71,-1072.13"/>
<text text-anchor="middle" x="760" y="-472.8" font-family="Helvetica,sans-Serif" font-size="9.00" fill="#b5412f">GPIO_0[4]</text>
</g>
<!-- io -->
<g id="node9" class="node">
<title>io</title>
<polygon fill="#fde9e7" stroke="#555555" points="511,-52 391,-52 391,-16 517,-16 517,-46 511,-52"/>
<polyline fill="none" stroke="#555555" points="511,-52 511,-46 "/>
<polyline fill="none" stroke="#555555" points="517,-46 511,-46 "/>
<text text-anchor="middle" x="454" y="-37.2" font-family="Helvetica,sans-Serif" font-size="11.00">KEY/SW reset</text>
<text text-anchor="middle" x="454" y="-25.2" font-family="Helvetica,sans-Serif" font-size="11.00">LEDR[9:0] · HEX3..0</text>
</g>
<!-- frx -->
<g id="node11" class="node">
<title>frx</title>
<path fill="#ffffff" stroke="#555555" d="M580.5,-862C580.5,-862 401.5,-862 401.5,-862 395.5,-862 389.5,-856 389.5,-850 389.5,-850 389.5,-838 389.5,-838 389.5,-832 395.5,-826 401.5,-826 401.5,-826 580.5,-826 580.5,-826 586.5,-826 592.5,-832 592.5,-838 592.5,-838 592.5,-850 592.5,-850 592.5,-856 586.5,-862 580.5,-862"/>
<text text-anchor="middle" x="491" y="-847.2" font-family="Helvetica,sans-Serif" font-size="11.00">uart_sensor_frame_rx</text>
<text text-anchor="middle" x="491" y="-835.2" font-family="Helvetica,sans-Serif" font-size="11.00">24&#45;B frame: A5 5A | 7×24 b | XOR</text>
</g>
<!-- urx&#45;&gt;frx -->
<g id="edge5" class="edge">
<title>urx&#45;&gt;frx</title>
<path fill="none" stroke="#444444" d="M513.27,-894.75C510.11,-887.69 506.39,-879.36 502.89,-871.56"/>
<polygon fill="#444444" stroke="#444444" points="506.08,-870.13 498.8,-862.43 499.7,-872.99 506.08,-870.13"/>
</g>
<!-- fifo -->
<g id="node12" class="node">
<title>fifo</title>
<path fill="#ffffff" stroke="#555555" d="M444.5,-793C444.5,-793 393.5,-793 393.5,-793 387.5,-793 381.5,-787 381.5,-781 381.5,-781 381.5,-769 381.5,-769 381.5,-763 387.5,-757 393.5,-757 393.5,-757 444.5,-757 444.5,-757 450.5,-757 456.5,-763 456.5,-769 456.5,-769 456.5,-781 456.5,-781 456.5,-787 450.5,-793 444.5,-793"/>
<text text-anchor="middle" x="419" y="-778.2" font-family="Helvetica,sans-Serif" font-size="11.00">elastic_fifo</text>
<text text-anchor="middle" x="419" y="-766.2" font-family="Helvetica,sans-Serif" font-size="11.00">(vibration)</text>
</g>
<!-- frx&#45;&gt;fifo -->
<g id="edge6" class="edge">
<title>frx&#45;&gt;fifo</title>
<path fill="none" stroke="#444444" d="M472.46,-825.75C464.12,-817.99 454.15,-808.7 445.08,-800.27"/>
<polygon fill="#444444" stroke="#444444" points="447.43,-797.68 437.73,-793.43 442.67,-802.8 447.43,-797.68"/>
</g>
<!-- col -->
<g id="node16" class="node">
<title>col</title>
<path fill="#ffffff" stroke="#555555" d="M514,-424C514,-424 394,-424 394,-424 388,-424 382,-418 382,-412 382,-412 382,-400 382,-400 382,-394 388,-388 394,-388 394,-388 514,-388 514,-388 520,-388 526,-394 526,-400 526,-400 526,-412 526,-412 526,-418 520,-424 514,-424"/>
<text text-anchor="middle" x="454" y="-409.2" font-family="Helvetica,sans-Serif" font-size="11.00">fft_to_mlp_collector</text>
<text text-anchor="middle" x="454" y="-397.2" font-family="Helvetica,sans-Serif" font-size="11.00">+ aux (current, temps)</text>
</g>
<!-- frx&#45;&gt;col -->
<g id="edge15" class="edge">
<title>frx&#45;&gt;col</title>
<path fill="none" stroke="#444444" stroke-dasharray="5,2" d="M491,-825.93C491,-812.39 491,-792.98 491,-776 491,-776 491,-776 491,-474 491,-458.92 483.73,-444.05 475.64,-432.16"/>
<polygon fill="#444444" stroke="#444444" points="478.43,-430.06 469.69,-424.07 472.79,-434.2 478.43,-430.06"/>
<text text-anchor="middle" x="514.5" y="-627.8" font-family="Helvetica,sans-Serif" font-size="9.00">aux words</text>
</g>
<!-- fft -->
<g id="node13" class="node">
<title>fft</title>
<path fill="#ffffff" stroke="#555555" d="M437.5,-687C437.5,-687 270.5,-687 270.5,-687 264.5,-687 258.5,-681 258.5,-675 258.5,-675 258.5,-663 258.5,-663 258.5,-657 264.5,-651 270.5,-651 270.5,-651 437.5,-651 437.5,-651 443.5,-651 449.5,-657 449.5,-663 449.5,-663 449.5,-675 449.5,-675 449.5,-681 443.5,-687 437.5,-687"/>
<text text-anchor="middle" x="354" y="-672.2" font-family="Helvetica,sans-Serif" font-size="11.00">4&#45;ch shared FFT pipeline</text>
<text text-anchor="middle" x="354" y="-660.2" font-family="Helvetica,sans-Serif" font-size="11.00">(decimator opt. · LMS / no&#45;LMS)</text>
</g>
<!-- fifo&#45;&gt;fft -->
<g id="edge14" class="edge">
<title>fifo&#45;&gt;fft</title>
<path fill="none" stroke="#444444" d="M408.27,-756.83C397.87,-740.19 381.97,-714.76 370.07,-695.71"/>
<polygon fill="#444444" stroke="#444444" points="373.02,-693.82 364.75,-687.2 367.08,-697.53 373.02,-693.82"/>
<text text-anchor="middle" x="424" y="-733.8" font-family="Helvetica,sans-Serif" font-size="9.00">vib samples</text>
</g>
<!-- skid -->
<g id="node14" class="node">
<title>skid</title>
<path fill="#ffffff" stroke="#555555" d="M380,-609C380,-609 328,-609 328,-609 322,-609 316,-603 316,-597 316,-597 316,-585 316,-585 316,-579 322,-573 328,-573 328,-573 380,-573 380,-573 386,-573 392,-579 392,-585 392,-585 392,-597 392,-597 392,-603 386,-609 380,-609"/>
<text text-anchor="middle" x="354" y="-588.2" font-family="Helvetica,sans-Serif" font-size="11.00">skid_buffer</text>
</g>
<!-- fft&#45;&gt;skid -->
<g id="edge7" class="edge">
<title>fft&#45;&gt;skid</title>
<path fill="none" stroke="#444444" d="M354,-650.75C354,-641.52 354,-629.93 354,-619.49"/>
<polygon fill="#444444" stroke="#444444" points="357.5,-619.18 354,-609.18 350.5,-619.18 357.5,-619.18"/>
</g>
<!-- mdc -->
<g id="node15" class="node">
<title>mdc</title>
<path fill="#ffffff" stroke="#555555" d="M438.5,-493C438.5,-493 373.5,-493 373.5,-493 367.5,-493 361.5,-487 361.5,-481 361.5,-481 361.5,-469 361.5,-469 361.5,-463 367.5,-457 373.5,-457 373.5,-457 438.5,-457 438.5,-457 444.5,-457 450.5,-463 450.5,-469 450.5,-469 450.5,-481 450.5,-481 450.5,-487 444.5,-493 438.5,-493"/>
<text text-anchor="middle" x="406" y="-472.2" font-family="Helvetica,sans-Serif" font-size="11.00">fft_peak_mdc</text>
</g>
<!-- skid&#45;&gt;mdc -->
<g id="edge16" class="edge">
<title>skid&#45;&gt;mdc</title>
<path fill="none" stroke="#444444" d="M361.9,-572.69C370.42,-554 384.1,-524.01 393.97,-502.38"/>
<polygon fill="#444444" stroke="#444444" points="397.23,-503.65 398.2,-493.1 390.86,-500.75 397.23,-503.65"/>
<text text-anchor="middle" x="398" y="-544.8" font-family="Helvetica,sans-Serif" font-size="9.00">FFT beats</text>
</g>
<!-- ad -->
<g id="node18" class="node">
<title>ad</title>
<path fill="#ffffff" stroke="#555555" d="M323.5,-493C323.5,-493 210.5,-493 210.5,-493 204.5,-493 198.5,-487 198.5,-481 198.5,-481 198.5,-469 198.5,-469 198.5,-463 204.5,-457 210.5,-457 210.5,-457 323.5,-457 323.5,-457 329.5,-457 335.5,-463 335.5,-469 335.5,-469 335.5,-481 335.5,-481 335.5,-487 329.5,-493 323.5,-493"/>
<text text-anchor="middle" x="267" y="-478.2" font-family="Helvetica,sans-Serif" font-size="11.00">fft_to_stream_adapter</text>
<text text-anchor="middle" x="267" y="-466.2" font-family="Helvetica,sans-Serif" font-size="11.00">×4</text>
</g>
<!-- skid&#45;&gt;ad -->
<g id="edge17" class="edge">
<title>skid&#45;&gt;ad</title>
<path fill="none" stroke="#444444" d="M315.82,-576.68C306.26,-571.78 296.81,-565.32 290,-557 277.51,-541.73 271.79,-520.04 269.18,-502.95"/>
<polygon fill="#444444" stroke="#444444" points="272.65,-502.48 267.93,-493 265.71,-503.36 272.65,-502.48"/>
<text text-anchor="middle" x="326.5" y="-549.8" font-family="Helvetica,sans-Serif" font-size="9.00">FFT beats</text>
<text text-anchor="middle" x="326.5" y="-539.8" font-family="Helvetica,sans-Serif" font-size="9.00">(shared accept)</text>
</g>
<!-- mdc&#45;&gt;col -->
<g id="edge8" class="edge">
<title>mdc&#45;&gt;col</title>
<path fill="none" stroke="#444444" d="M418.36,-456.75C423.58,-449.46 429.78,-440.81 435.52,-432.79"/>
<polygon fill="#444444" stroke="#444444" points="438.54,-434.6 441.51,-424.43 432.84,-430.52 438.54,-434.6"/>
</g>
<!-- mlp -->
<g id="node17" class="node">
<title>mlp</title>
<path fill="#d9efd9" stroke="#555555" d="M469,-355C469,-355 439,-355 439,-355 433,-355 427,-349 427,-343 427,-343 427,-331 427,-331 427,-325 433,-319 439,-319 439,-319 469,-319 469,-319 475,-319 481,-325 481,-331 481,-331 481,-343 481,-343 481,-349 475,-355 469,-355"/>
<text text-anchor="middle" x="454" y="-334.2" font-family="Helvetica,sans-Serif" font-size="11.00">MLP</text>
</g>
<!-- col&#45;&gt;mlp -->
<g id="edge9" class="edge">
<title>col&#45;&gt;mlp</title>
<path fill="none" stroke="#444444" d="M454,-387.75C454,-381 454,-373.09 454,-365.59"/>
<polygon fill="#444444" stroke="#444444" points="457.5,-365.43 454,-355.43 450.5,-365.43 457.5,-365.43"/>
</g>
<!-- arb -->
<g id="node23" class="node">
<title>arb</title>
<path fill="#d9efd9" stroke="#555555" d="M520.5,-130C520.5,-130 387.5,-130 387.5,-130 381.5,-130 375.5,-124 375.5,-118 375.5,-118 375.5,-106 375.5,-106 375.5,-100 381.5,-94 387.5,-94 387.5,-94 520.5,-94 520.5,-94 526.5,-94 532.5,-100 532.5,-106 532.5,-106 532.5,-118 532.5,-118 532.5,-124 526.5,-130 520.5,-130"/>
<text text-anchor="middle" x="454" y="-115.2" font-family="Helvetica,sans-Serif" font-size="11.00">inference_arbiter</text>
<text text-anchor="middle" x="454" y="-103.2" font-family="Helvetica,sans-Serif" font-size="11.00">status · fault mask · alert</text>
</g>
<!-- mlp&#45;&gt;arb -->
<g id="edge18" class="edge">
<title>mlp&#45;&gt;arb</title>
<path fill="none" stroke="#444444" d="M434.62,-318.73C415.26,-300.06 386.74,-268.33 375,-234 360.96,-192.95 409.87,-232.7 449,-156 451.46,-151.19 452.93,-145.68 453.77,-140.26"/>
<polygon fill="#444444" stroke="#444444" points="457.27,-140.41 454.72,-130.13 450.3,-139.76 457.27,-140.41"/>
<text text-anchor="middle" x="419.5" y="-226.8" font-family="Helvetica,sans-Serif" font-size="9.00">class / 2048 frames</text>
</g>
<!-- spec -->
<g id="node19" class="node">
<title>spec</title>
<path fill="#ffffff" stroke="#555555" d="M325,-424C325,-424 203,-424 203,-424 197,-424 191,-418 191,-412 191,-412 191,-400 191,-400 191,-394 197,-388 203,-388 203,-388 325,-388 325,-388 331,-388 337,-394 337,-400 337,-400 337,-412 337,-412 337,-418 331,-424 325,-424"/>
<text text-anchor="middle" x="264" y="-409.2" font-family="Helvetica,sans-Serif" font-size="11.00">spectrogram_generator</text>
<text text-anchor="middle" x="264" y="-397.2" font-family="Helvetica,sans-Serif" font-size="11.00">×4</text>
</g>
<!-- ad&#45;&gt;spec -->
<g id="edge10" class="edge">
<title>ad&#45;&gt;spec</title>
<path fill="none" stroke="#444444" d="M266.23,-456.75C265.93,-450 265.57,-442.09 265.24,-434.59"/>
<polygon fill="#444444" stroke="#444444" points="268.72,-434.26 264.78,-424.43 261.73,-434.58 268.72,-434.26"/>
</g>
<!-- join -->
<g id="node20" class="node">
<title>join</title>
<path fill="#ffffff" stroke="#555555" d="M321,-355C321,-355 209,-355 209,-355 203,-355 197,-349 197,-343 197,-343 197,-331 197,-331 197,-325 203,-319 209,-319 209,-319 321,-319 321,-319 327,-319 333,-325 333,-331 333,-331 333,-343 333,-343 333,-349 327,-355 321,-355"/>
<text text-anchor="middle" x="265" y="-334.2" font-family="Helvetica,sans-Serif" font-size="11.00">spectrogram_4ch_join</text>
</g>
<!-- spec&#45;&gt;join -->
<g id="edge11" class="edge">
<title>spec&#45;&gt;join</title>
<path fill="none" stroke="#444444" d="M264.26,-387.75C264.36,-381 264.48,-373.09 264.59,-365.59"/>
<polygon fill="#444444" stroke="#444444" points="268.09,-365.48 264.74,-355.43 261.09,-365.38 268.09,-365.48"/>
</g>
<!-- pp -->
<g id="node21" class="node">
<title>pp</title>
<path fill="#ffffff" stroke="#555555" d="M324,-286C324,-286 206,-286 206,-286 200,-286 194,-280 194,-274 194,-274 194,-262 194,-262 194,-256 200,-250 206,-250 206,-250 324,-250 324,-250 330,-250 336,-256 336,-262 336,-262 336,-274 336,-274 336,-280 330,-286 324,-286"/>
<text text-anchor="middle" x="265" y="-265.2" font-family="Helvetica,sans-Serif" font-size="11.00">frame_pingpong_buffer</text>
</g>
<!-- join&#45;&gt;pp -->
<g id="edge12" class="edge">
<title>join&#45;&gt;pp</title>
<path fill="none" stroke="#444444" d="M265,-318.75C265,-312 265,-304.09 265,-296.59"/>
<polygon fill="#444444" stroke="#444444" points="268.5,-296.43 265,-286.43 261.5,-296.43 268.5,-296.43"/>
</g>
<!-- cnn -->
<g id="node22" class="node">
<title>cnn</title>
<path fill="#d9efd9" stroke="#555555" d="M313.5,-208C313.5,-208 278.5,-208 278.5,-208 272.5,-208 266.5,-202 266.5,-196 266.5,-196 266.5,-184 266.5,-184 266.5,-178 272.5,-172 278.5,-172 278.5,-172 313.5,-172 313.5,-172 319.5,-172 325.5,-178 325.5,-184 325.5,-184 325.5,-196 325.5,-196 325.5,-202 319.5,-208 313.5,-208"/>
<text text-anchor="middle" x="296" y="-187.2" font-family="Helvetica,sans-Serif" font-size="11.00">cnn_top</text>
</g>
<!-- pp&#45;&gt;cnn -->
<g id="edge13" class="edge">
<title>pp&#45;&gt;cnn</title>
<path fill="none" stroke="#444444" d="M270.54,-249.67C273.19,-241.76 276.54,-232.32 280,-224 280.87,-221.9 281.81,-219.74 282.79,-217.58"/>
<polygon fill="#444444" stroke="#444444" points="286.06,-218.84 287.15,-208.3 279.73,-215.86 286.06,-218.84"/>
</g>
<!-- cnn&#45;&gt;arb -->
<g id="edge19" class="edge">
<title>cnn&#45;&gt;arb</title>
<path fill="none" stroke="#444444" d="M314.83,-171.92C325.2,-163.21 338.65,-153.01 352,-146 360.83,-141.36 370.44,-137.21 380.12,-133.56"/>
<polygon fill="#444444" stroke="#444444" points="381.56,-136.76 389.78,-130.07 379.19,-130.17 381.56,-136.76"/>
<text text-anchor="middle" x="399.5" y="-148.8" font-family="Helvetica,sans-Serif" font-size="9.00">class / 65536 frames</text>
</g>
<!-- arb&#45;&gt;telem -->
<g id="edge23" class="edge">
<title>arb&#45;&gt;telem</title>
<path fill="none" stroke="#444444" d="M499.11,-93.94C529,-82.64 568.41,-67.74 600.12,-55.75"/>
<polygon fill="#444444" stroke="#444444" points="601.58,-58.94 609.69,-52.13 599.1,-52.39 601.58,-58.94"/>
<text text-anchor="middle" x="597" y="-70.8" font-family="Helvetica,sans-Serif" font-size="9.00">S F A M N C K</text>
</g>
<!-- arb&#45;&gt;io -->
<g id="edge24" class="edge">
<title>arb&#45;&gt;io</title>
<path fill="none" stroke="#444444" d="M454,-93.75C454,-84.52 454,-72.93 454,-62.49"/>
<polygon fill="#444444" stroke="#444444" points="457.5,-62.18 454,-52.18 450.5,-62.18 457.5,-62.18"/>
</g>
</g>
</svg>
